HIERARCHY
ROOT Hips
{
	OFFSET 0.00000 0.00000 0.00000
	CHANNELS 6 Xposition Yposition Zposition Zrotation Yrotation Xrotation 
	JOINT LHipJoint
	{
		OFFSET 0 0 0
		CHANNELS 3 Zrotation Yrotation Xrotation
		JOINT LeftUpLeg
		{
			OFFSET 1.52977 -1.71332 0.88991
			CHANNELS 3 Zrotation Yrotation Xrotation
			JOINT LeftLeg
			{
				OFFSET 2.23949 -6.15296 0.00000
				CHANNELS 3 Zrotation Yrotation Xrotation
				JOINT LeftFoot
				{
					OFFSET 2.68396 -7.37412 0.00000
					CHANNELS 3 Zrotation Yrotation Xrotation
					JOINT LeftToeBase
					{
						OFFSET 0.20538 -0.56428 2.52710
						CHANNELS 3 Zrotation Yrotation Xrotation
						End Site
						{
							OFFSET 0.00000 -0.00000 1.29919
						}
					}
				}
			}
		}
	}
	JOINT RHipJoint
	{
		OFFSET 0 0 0
		CHANNELS 3 Zrotation Yrotation Xrotation
		JOINT RightUpLeg
		{
			OFFSET -1.45689 -1.71333 0.88991
			CHANNELS 3 Zrotation Yrotation Xrotation
			JOINT RightLeg
			{
				OFFSET -2.36700 -6.50329 0.00000
				CHANNELS 3 Zrotation Yrotation Xrotation
				JOINT RightFoot
				{
					OFFSET -2.69814 -7.41308 0.00000
					CHANNELS 3 Zrotation Yrotation Xrotation
					JOINT RightToeBase
					{
						OFFSET -0.18734 -0.51471 2.37479
						CHANNELS 3 Zrotation Yrotation Xrotation
						End Site
						{
							OFFSET -0.00000 -0.00000 1.22113
						}
					}
				}
			}
		}
	}
	JOINT LowerBack
	{
		OFFSET 0 0 0
		CHANNELS 3 Zrotation Yrotation Xrotation
		JOINT Spine
		{
			OFFSET 0.04294 2.14638 -0.31163
			CHANNELS 3 Zrotation Yrotation Xrotation
			JOINT Spine1
			{
				OFFSET -0.00400 2.17216 0.01486
				CHANNELS 3 Zrotation Yrotation Xrotation
				JOINT Neck
				{
					OFFSET 0 0 0
					CHANNELS 3 Zrotation Yrotation Xrotation
					JOINT Neck1
					{
						OFFSET 0.03869 1.76598 0.14916
						CHANNELS 3 Zrotation Yrotation Xrotation
						JOINT Head
						{
							OFFSET -0.00760 1.75513 -0.18948
							CHANNELS 3 Zrotation Yrotation Xrotation
							End Site
							{
								OFFSET -0.00601 1.82444 -0.08310
							}
						}
					}
				}
				JOINT LeftShoulder
				{
					OFFSET 0 0 0
					CHANNELS 3 Zrotation Yrotation Xrotation
					JOINT LeftArm
					{
						OFFSET 3.73696 0.92058 0.01733
						CHANNELS 3 Zrotation Yrotation Xrotation
						JOINT LeftForeArm
						{
							OFFSET 5.22771 -0.00000 0.00000
							CHANNELS 3 Zrotation Yrotation Xrotation
							JOINT LeftHand
							{
								OFFSET 3.45251 -0.00000 0.00000
								CHANNELS 3 Zrotation Yrotation Xrotation
								JOINT LeftFingerBase
								{
									OFFSET 0 0 0
									CHANNELS 3 Zrotation Yrotation Xrotation
									JOINT LeftHandIndex1
									{
										OFFSET 0.55212 -0.00000 0.00000
										CHANNELS 3 Zrotation Yrotation Xrotation
										End Site
										{
											OFFSET 0.44513 -0.00000 0.00000
										}
									}
								}
								JOINT LThumb
								{
									OFFSET 0 0 0
									CHANNELS 3 Zrotation Yrotation Xrotation
									End Site
									{
										OFFSET 0.45193 -0.00000 0.45193
									}
								}
							}
						}
					}
				}
				JOINT RightShoulder
				{
					OFFSET 0 0 0
					CHANNELS 3 Zrotation Yrotation Xrotation
					JOINT RightArm
					{
						OFFSET -3.63819 0.83094 -0.13694
						CHANNELS 3 Zrotation Yrotation Xrotation
						JOINT RightForeArm
						{
							OFFSET -5.23980 -0.00000 -0.00000
							CHANNELS 3 Zrotation Yrotation Xrotation
							JOINT RightHand
							{
								OFFSET -3.48042 -0.00000 -0.00000
								CHANNELS 3 Zrotation Yrotation Xrotation
								JOINT RightFingerBase
								{
									OFFSET 0 0 0
									CHANNELS 3 Zrotation Yrotation Xrotation
									JOINT RightHandIndex1
									{
										OFFSET -0.61871 -0.00000 0.00000
										CHANNELS 3 Zrotation Yrotation Xrotation
										End Site
										{
											OFFSET -0.49882 -0.00000 0.00000
										}
									}
								}
								JOINT RThumb
								{
									OFFSET 0 0 0
									CHANNELS 3 Zrotation Yrotation Xrotation
									End Site
									{
										OFFSET -0.50644 -0.00000 0.50644
									}
								}
							}
						}
					}
				}
			}
		}
	}
}
MOTION
Frames: 13
Frame Time: .0083333
10.8049 16.4643 -5.4763 -433.7510 86.8060 -406.7050 0.0000 0.0000 0.0000 -18.6214 -10.2126 -55.5332 2.9229 10.5692 30.8402 0.0141 1.6310 -3.4258 0.0079 0.5725 1.5732 0.0000 0.0000 0.0000 19.1777 17.2551 -32.8498 -9.0533 -16.8419 56.2742 -0.9657 -2.3040 -19.5298 -1.2712 7.1461 -20.1490 0.5508 -0.5020 27.4642 -0.9820 -0.1455 5.6447 -1.3924 0.0913 -8.9017 0.5355 -0.1144 6.6622 2.8054 0.8281 -20.2276 0.7333 0.2775 -7.2992 0.0000 0.0000 0.0000 -83.4440 -1.6375 32.2160 17.6551 -27.7133 -4.3877 -0.0000 0.0000 -21.4393 21.7183 8.7663 3.4739 -7.1250 0.0000 -0.0000 -4.5155 39.3661 0.6284 0.0000 0.0000 0.0000 87.9551 -0.2162 33.1857 -20.0464 30.6982 -5.5550 0.0000 -0.0000 -3.1649 -20.2797 -5.6955 2.1001 7.1250 -0.0000 -0.0000 5.3912 -36.0049 1.1964
10.7094 16.4602 -5.4609 -433.4510 86.7736 -406.5410 0.0000 0.0000 0.0000 -18.5889 -10.1346 -55.6103 2.8619 10.4680 30.5060 0.0043 1.7844 -2.9183 0.0057 0.4878 1.3405 0.0000 0.0000 0.0000 19.5037 17.2449 -31.9850 -8.6343 -16.5665 54.8166 -1.1265 -1.9773 -20.8538 -1.3309 7.3054 -20.6235 0.5301 -0.5045 27.4605 -1.0044 -0.1560 5.6537 -1.4018 0.0872 -8.8899 0.5234 -0.1025 6.7186 2.8356 0.8484 -20.2201 0.7436 0.2844 -7.3073 -0.0000 -0.0000 0.0000 -83.4249 -1.5884 32.2579 17.6584 -27.7176 -4.3892 -0.0000 0.0000 -21.4634 21.7491 8.6885 3.4488 -7.1250 0.0000 -0.0000 -4.4794 39.2854 0.6323 -0.0000 -0.0000 0.0000 87.9749 -0.2662 33.2540 -20.0920 30.7530 -5.5783 0.0000 -0.0000 -3.2595 -20.2550 -5.6194 2.0694 7.1250 -0.0000 -0.0000 5.4040 -35.9230 1.2101
10.6118 16.4562 -5.4447 -433.3960 86.7433 -406.6200 0.0000 0.0000 0.0000 -18.5597 -10.0489 -55.6888 2.7979 10.3605 30.1520 -0.0040 1.9384 -2.3927 0.0040 0.4105 1.1279 0.0000 0.0000 0.0000 19.8390 17.2038 -31.1904 -8.2531 -16.3023 53.4693 -1.2965 -1.7629 -22.2138 -1.3536 7.3649 -20.8009 0.5220 -0.5073 27.4558 -1.0235 -0.1630 5.6619 -1.4160 0.0843 -8.8786 0.5093 -0.0936 6.7755 2.8743 0.8656 -20.2096 0.7571 0.2892 -7.3145 -0.0000 -0.0000 0.0000 -83.4086 -1.5492 32.3059 17.6611 -27.7210 -4.3905 -0.0000 0.0000 -21.4805 21.7557 8.6178 3.4221 -7.1250 0.0000 -0.0000 -4.4650 39.2105 0.6385 -0.0000 -0.0000 0.0000 87.9963 -0.3210 33.3099 -20.1240 30.7915 -5.5947 0.0000 -0.0000 -3.3263 -20.2824 -5.4724 2.0185 7.1250 -0.0000 -0.0000 5.3661 -35.7686 1.2218
10.5120 16.4524 -5.4282 -433.4960 86.7082 -406.8480 0.0000 0.0000 0.0000 -18.5250 -9.9593 -55.7747 2.7322 10.2483 29.7847 -0.0107 2.1056 -1.8585 0.0029 0.3456 0.9495 0.0000 0.0000 0.0000 20.1780 17.1477 -30.4715 -7.9079 -16.0511 52.2301 -1.4675 -1.6497 -23.5386 -1.3332 7.3115 -20.6415 0.5267 -0.5103 27.4432 -1.0382 -0.1665 5.6703 -1.4338 0.0828 -8.8629 0.4997 -0.0852 6.8221 2.9085 0.8813 -20.1884 0.7686 0.2935 -7.3163 -0.0000 0.0000 0.0000 -83.3988 -1.5207 32.3369 17.6668 -27.7284 -4.3931 -0.0000 0.0000 -21.4634 21.7227 8.5967 3.4081 -7.1250 0.0000 -0.0000 -4.4910 39.1853 0.6450 -0.0000 0.0000 0.0000 88.0144 -0.3742 33.3685 -20.1490 30.8215 -5.6075 0.0000 -0.0000 -3.3736 -20.3392 -5.3120 1.9655 7.1250 -0.0000 -0.0000 5.3028 -35.6015 1.2290
10.4106 16.4486 -5.4117 -433.6030 86.6517 -407.0840 0.0000 0.0000 0.0000 -18.4662 -9.8623 -55.8637 2.6662 10.1340 29.4116 -0.0162 2.3032 -1.3246 0.0020 0.2907 0.7988 0.0000 0.0000 0.0000 20.5259 17.0912 -29.8207 -7.5925 -15.8112 51.0811 -1.6342 -1.5977 -24.7820 -1.2835 7.1792 -20.2475 0.5520 -0.5077 27.4269 -1.0493 -0.1568 5.6794 -1.4639 0.0870 -8.8443 0.4980 -0.0763 6.8666 2.9353 0.8970 -20.1610 0.7763 0.2979 -7.3157 -0.0000 -0.0000 0.0000 -83.3932 -1.4946 32.3662 17.6776 -27.7424 -4.3981 -0.0000 0.0000 -21.4449 21.6719 8.6061 3.4030 -7.1250 0.0000 -0.0000 -4.5361 39.1914 0.6508 -0.0000 -0.0000 0.0000 88.0316 -0.4256 33.4276 -20.1664 30.8423 -5.6164 0.0000 -0.0000 -3.3984 -20.4174 -5.1583 1.9168 7.1250 -0.0000 -0.0000 5.2228 -35.4422 1.2306
10.3072 16.4447 -5.3950 -433.7390 86.5714 -407.3460 0.0000 0.0000 0.0000 -18.3761 -9.7594 -55.9644 2.6011 10.0194 29.0395 -0.0203 2.5320 -0.7991 0.0017 0.2650 0.7281 0.0000 0.0000 0.0000 20.8828 17.0444 -29.2421 -7.2994 -15.5789 49.9979 -1.7963 -1.5851 -25.9477 -1.2050 6.9643 -19.6096 0.5936 -0.5016 27.4008 -1.0543 -0.1376 5.6914 -1.4998 0.0954 -8.8173 0.4970 -0.0677 6.8994 2.9593 0.9115 -20.1265 0.7830 0.3021 -7.3107 -0.0000 0.0000 0.0000 -83.3954 -1.4734 32.3785 17.6944 -27.7641 -4.4060 -0.0000 0.0000 -21.4272 21.6168 8.6294 3.4026 -7.1250 0.0000 -0.0000 -4.5865 39.2120 0.6557 -0.0000 0.0000 0.0000 88.0421 -0.4672 33.5038 -20.1811 30.8599 -5.6239 0.0000 -0.0000 -3.4135 -20.4858 -5.0505 1.8838 7.1250 -0.0000 -0.0000 5.1557 -35.3311 1.2287
10.2021 16.4406 -5.3781 -433.7730 86.4691 -407.5040 0.0000 0.0000 0.0000 -18.2593 -9.6498 -56.0767 2.5375 9.9058 28.6724 -0.0232 2.7927 -0.2720 0.0013 0.2368 0.6507 0.0000 0.0000 0.0000 21.2432 17.0086 -28.7338 -7.0221 -15.3505 48.9580 -1.9527 -1.6146 -27.0403 -1.1083 6.6887 -18.7965 0.6390 -0.4892 27.3689 -1.0523 -0.1087 5.7058 -1.5331 0.1083 -8.7844 0.4912 -0.0571 6.9268 2.9804 0.9272 -20.0893 0.7895 0.3075 -7.3038 0.0000 0.0000 0.0000 -83.4102 -1.4518 32.3802 17.7147 -27.7903 -4.4154 -0.0000 0.0000 -21.4259 21.5710 8.6604 3.4068 -7.1250 0.0000 -0.0000 -4.6299 39.2415 0.6586 0.0000 0.0000 0.0000 88.0364 -0.4978 33.6078 -20.1875 30.8676 -5.6273 0.0000 -0.0000 -3.4156 -20.5611 -4.9560 1.8560 7.1250 -0.0000 -0.0000 5.0843 -35.2342 1.2236
10.0952 16.4364 -5.3604 -433.7710 86.3428 -407.6260 0.0000 0.0000 0.0000 -18.1106 -9.5309 -56.2000 2.4760 9.7941 28.3123 -0.0248 3.0788 0.2596 0.0011 0.2154 0.5918 0.0000 0.0000 0.0000 21.6176 16.9792 -28.2900 -6.7569 -15.1237 47.9489 -2.1048 -1.6940 -28.0819 -1.0020 6.3698 -17.8613 0.6882 -0.4713 27.3367 -1.0434 -0.0710 5.7211 -1.5640 0.1253 -8.7499 0.4864 -0.0457 6.9505 2.9988 0.9434 -20.0483 0.7949 0.3134 -7.2950 0.0000 0.0000 0.0000 -83.4338 -1.4240 32.3736 17.7388 -27.8214 -4.4266 -0.0000 0.0000 -21.4551 21.5575 8.6641 3.4059 -7.1250 0.0000 -0.0000 -4.6420 39.2445 0.6600 0.0000 0.0000 0.0000 88.0198 -0.5187 33.7402 -20.1952 30.8767 -5.6312 0.0000 -0.0000 -3.4261 -20.5859 -4.9346 1.8505 7.1250 -0.0000 -0.0000 5.0617 -35.2127 1.2208
9.9865 16.4321 -5.3416 -433.8160 86.1987 -407.8040 0.0000 0.0000 0.0000 -17.9362 -9.4002 -56.3270 2.4165 9.6844 27.9606 -0.0246 3.3735 0.8067 0.0009 0.1985 0.5454 0.0000 0.0000 0.0000 22.0126 16.9481 -27.8956 -6.5031 -14.8988 46.9690 -2.2497 -1.8352 -29.0663 -0.8849 5.9965 -16.7743 0.7349 -0.4493 27.3126 -1.0255 -0.0278 5.7378 -1.5852 0.1451 -8.7177 0.4804 -0.0327 6.9705 3.0149 0.9607 -20.0011 0.7997 0.3202 -7.2835 0.0000 0.0000 0.0000 -83.4655 -1.3851 32.3648 17.7672 -27.8580 -4.4399 -0.0000 0.0000 -21.5165 21.5759 8.6627 3.4085 -7.1250 0.0000 -0.0000 -4.6259 39.2444 0.6577 0.0000 0.0000 0.0000 87.9934 -0.5299 33.8906 -20.1948 30.8763 -5.6310 0.0000 -0.0000 -3.4295 -20.5816 -4.9272 1.8473 7.1250 -0.0000 -0.0000 5.0647 -35.2047 1.2225
9.8759 16.4277 -5.3215 -433.9210 86.0427 -408.0450 0.0000 0.0000 0.0000 -17.7427 -9.2619 -56.4666 2.3596 9.5781 27.6209 -0.0221 3.6669 1.3796 0.0007 0.1754 0.4818 0.0000 0.0000 0.0000 22.4253 16.9127 -27.5518 -6.2631 -14.6786 46.0288 -2.3885 -2.0196 -30.0002 -0.7591 5.5641 -15.5248 0.7818 -0.4249 27.2942 -1.0034 0.0189 5.7526 -1.6031 0.1665 -8.6905 0.4818 -0.0193 6.9869 3.0280 0.9784 -19.9427 0.8021 0.3268 -7.2677 -0.0000 -0.0000 0.0000 -83.4937 -1.3334 32.3662 17.7979 -27.8977 -4.4543 -0.0000 0.0000 -21.5974 21.6040 8.6405 3.4047 -7.1250 0.0000 -0.0000 -4.5989 39.2228 0.6563 -0.0000 -0.0000 0.0000 87.9667 -0.5363 34.0499 -20.1862 30.8660 -5.6266 0.0000 -0.0000 -3.4269 -20.5513 -4.9227 1.8426 7.1250 -0.0000 -0.0000 5.0893 -35.1985 1.2293
9.7637 16.4226 -5.3002 -434.1010 85.8737 -408.3720 0.0000 0.0000 0.0000 -17.5335 -9.1099 -56.6159 2.3060 9.4764 27.2972 -0.0167 3.9491 1.9853 0.0005 0.1465 0.4024 0.0000 0.0000 0.0000 22.8623 16.8657 -27.2478 -6.0396 -14.4666 45.1404 -2.5211 -2.2241 -30.8802 -0.6286 5.0731 -14.1171 0.8331 -0.3979 27.2881 -0.9771 0.0706 5.7660 -1.6206 0.1902 -8.6706 0.4854 -0.0056 7.0018 3.0441 0.9967 -19.8730 0.8051 0.3334 -7.2480 0.0000 0.0000 0.0000 -83.5184 -1.2702 32.3783 17.8278 -27.9361 -4.4683 -0.0000 0.0000 -21.6884 21.6286 8.6029 3.3943 -7.1250 0.0000 -0.0000 -4.5731 39.1846 0.6569 0.0000 0.0000 0.0000 87.9432 -0.5411 34.2038 -20.1734 30.8507 -5.6200 0.0000 -0.0000 -3.4204 -20.4925 -4.9348 1.8414 7.1250 -0.0000 -0.0000 5.1392 -35.2086 1.2401
9.6496 16.4165 -5.2779 -434.3810 85.6971 -408.8010 0.0000 0.0000 0.0000 -17.3305 -8.9397 -56.7544 2.2443 9.3574 26.9198 -0.0074 4.2350 2.6650 0.0004 0.1323 0.3635 0.0000 0.0000 0.0000 23.3166 16.8055 -26.9803 -5.8259 -14.2574 44.2787 -2.6447 -2.4376 -31.6912 -0.4981 4.5247 -12.5576 0.8914 -0.3715 27.2802 -0.9478 0.1237 5.7788 -1.6393 0.2144 -8.6505 0.4915 0.0074 7.0069 3.0631 1.0140 -19.7882 0.8087 0.3391 -7.2217 0.0000 -0.0000 0.0000 -83.5367 -1.2092 32.3925 17.8517 -27.9669 -4.4795 -0.0000 0.0000 -21.7485 21.6116 8.6148 3.3960 -7.1250 0.0000 -0.0000 -4.5893 39.1960 0.6579 0.0000 -0.0000 0.0000 87.9280 -0.5422 34.3423 -20.1570 30.8311 -5.6116 0.0000 -0.0000 -3.4034 -20.4278 -4.9409 1.8373 7.1250 -0.0000 -0.0000 5.1933 -35.2120 1.2528
9.5338 16.4092 -5.2552 -434.6270 85.5076 -409.2010 0.0000 0.0000 0.0000 -17.1199 -8.7588 -56.9140 2.1860 9.2431 26.5588 0.0060 4.5243 3.3844 0.0003 0.1189 0.3267 0.0000 0.0000 0.0000 23.7784 16.7503 -26.7615 -5.6336 -14.0637 43.4930 -2.7635 -2.6302 -32.4494 -0.3768 3.9423 -10.9144 0.9573 -0.3447 27.2675 -0.9169 0.1795 5.7929 -1.6614 0.2398 -8.6265 0.4930 0.0240 7.0100 3.0869 1.0361 -19.6962 0.8141 0.3471 -7.1927 -0.0000 -0.0000 0.0000 -83.5512 -1.1488 32.4017 17.8695 -27.9897 -4.4878 -0.0000 0.0000 -21.7705 21.5502 8.6586 3.4025 -7.1250 0.0000 -0.0000 -4.6477 39.2380 0.6616 -0.0000 -0.0000 0.0000 87.9195 -0.5402 34.4631 -20.1415 30.8124 -5.6036 0.0000 -0.0000 -3.3810 -20.3746 -4.9394 1.8316 7.1250 -0.0000 -0.0000 5.2372 -35.2080 1.2640
